<svg width="154" height="26" viewBox="0 0 154 26" fill="none" xmlns="http://www.w3.org/2000/svg">
<path fill-rule="evenodd" clip-rule="evenodd" d="M12.9339 3.43149C10.6348 3.43149 8.4295 4.32831 6.80325 5.92521C5.17695 7.52216 4.26299 9.68844 4.26299 11.9476V20.31C4.26272 20.3305 4.26657 20.3508 4.2744 20.3697C4.28222 20.3886 4.29377 20.4057 4.30829 20.4199C4.3228 20.4342 4.33997 20.4453 4.35875 20.4528C4.37753 20.4603 4.39758 20.464 4.41774 20.4637L4.4259 20.4636L12.9339 20.4637C14.0724 20.4637 15.1997 20.2435 16.2516 19.8157C17.3035 19.3878 18.2593 18.7607 19.0646 17.97C19.8698 17.1793 20.5087 16.2405 20.9446 15.2071C21.3805 14.1738 21.6048 13.0662 21.6048 11.9476C21.6048 10.829 21.3805 9.72142 20.9446 8.68808C20.5087 7.65473 19.8698 6.71593 19.0646 5.92521C18.2593 5.13449 17.3035 4.50736 16.2516 4.07952C15.1997 3.65168 14.0724 3.43149 12.9339 3.43149ZM12.9339 21.6666H4.4293C4.24621 21.6684 4.06462 21.6344 3.89507 21.5667C3.72405 21.4985 3.5688 21.3973 3.43844 21.2693C3.30809 21.1413 3.20525 20.9891 3.13593 20.8216C3.06719 20.6555 3.03275 20.4778 3.03455 20.2987V11.9476C3.03455 9.37049 4.0771 6.8986 5.9334 5.0758C7.78976 3.25295 10.3079 2.22858 12.9339 2.22858C14.2342 2.22858 15.5216 2.48006 16.7228 2.96862C17.924 3.45718 19.0153 4.17323 19.9344 5.0758C20.8536 5.97837 21.5826 7.04979 22.08 8.22883C22.5773 9.40788 22.8333 10.6715 22.8333 11.9476C22.8333 13.2237 22.5773 14.4873 22.08 15.6664C21.5826 16.8454 20.8536 17.9168 19.9344 18.8194C19.0153 19.722 17.924 20.438 16.7228 20.9266C15.5216 21.4151 14.2342 21.6666 12.9339 21.6666Z" fill="#00B37E"/>
<path fill-rule="evenodd" clip-rule="evenodd" d="M9.09015 10.7583C9.09015 10.4262 9.36515 10.1569 9.70437 10.1569H15.7599C16.0991 10.1569 16.3741 10.4262 16.3741 10.7583C16.3741 11.0905 16.0991 11.3598 15.7599 11.3598H9.70437C9.36515 11.3598 9.09015 11.0905 9.09015 10.7583Z" fill="#996DFF"/>
<path fill-rule="evenodd" clip-rule="evenodd" d="M9.09015 13.9297C9.09015 13.5975 9.36515 13.3282 9.70437 13.3282H15.7599C16.0991 13.3282 16.3741 13.5975 16.3741 13.9297C16.3741 14.2619 16.0991 14.5311 15.7599 14.5311H9.70437C9.36515 14.5311 9.09015 14.2619 9.09015 13.9297Z" fill="#996DFF"/>
<path d="M31.8621 3.28167H37.4948C38.7725 3.28167 39.8515 3.47292 40.7319 3.85543C41.62 4.23794 42.2939 4.80405 42.7536 5.55377C43.221 6.29583 43.4547 7.21003 43.4547 8.29635C43.4547 9.06137 43.295 9.76135 42.9756 10.3963C42.664 11.0236 42.2121 11.5591 41.62 12.0029C41.0357 12.4389 40.3345 12.764 39.5165 12.9782L38.8854 13.2192H33.5916L33.5682 11.4176H37.5649C38.3751 11.4176 39.049 11.2799 39.5866 11.0045C40.1242 10.7215 40.5293 10.3428 40.802 9.86846C41.0747 9.39415 41.211 8.87011 41.211 8.29635C41.211 7.65374 41.0824 7.09145 40.8253 6.60949C40.5683 6.12753 40.1631 5.75649 39.61 5.49639C39.0646 5.22863 38.3596 5.09476 37.4948 5.09476H34.1175V19.9896H31.8621V3.28167ZM41.807 19.9896L37.6701 12.416L40.019 12.4045L44.2143 19.8519V19.9896H41.807Z" fill="#996DFF"/>
<path d="M45.7102 13.9192V13.6553C45.7102 12.7602 45.8426 11.9302 46.1075 11.1652C46.3724 10.3925 46.7541 9.7231 47.2527 9.15699C47.7513 8.58323 48.3551 8.13952 49.0641 7.82586C49.7731 7.50456 50.5677 7.3439 51.4481 7.3439C52.3362 7.3439 53.1348 7.50456 53.8437 7.82586C54.5605 8.13952 55.1682 8.58323 55.6668 9.15699C56.1732 9.7231 56.5588 10.3925 56.8237 11.1652C57.0886 11.9302 57.221 12.7602 57.221 13.6553V13.9192C57.221 14.8143 57.0886 15.6443 56.8237 16.4093C56.5588 17.1744 56.1732 17.8438 55.6668 18.4175C55.1682 18.9836 54.5644 19.4273 53.8554 19.7486C53.1542 20.0623 52.3596 20.2191 51.4714 20.2191C50.5833 20.2191 49.7847 20.0623 49.0758 19.7486C48.3668 19.4273 47.7591 18.9836 47.2527 18.4175C46.7541 17.8438 46.3724 17.1744 46.1075 16.4093C45.8426 15.6443 45.7102 14.8143 45.7102 13.9192ZM47.8721 13.6553V13.9192C47.8721 14.5389 47.9461 15.1241 48.0941 15.6749C48.2422 16.2181 48.4642 16.7001 48.7603 17.1208C49.0641 17.5416 49.4419 17.8744 49.8938 18.1192C50.3457 18.3563 50.8715 18.4749 51.4714 18.4749C52.0635 18.4749 52.5816 18.3563 53.0257 18.1192C53.4776 17.8744 53.8515 17.5416 54.1476 17.1208C54.4436 16.7001 54.6657 16.2181 54.8137 15.6749C54.9695 15.1241 55.0474 14.5389 55.0474 13.9192V13.6553C55.0474 13.0433 54.9695 12.4657 54.8137 11.9225C54.6657 11.3717 54.4397 10.8859 54.1359 10.4652C53.8398 10.0368 53.4659 9.70015 53.014 9.45535C52.5699 9.21054 52.048 9.08814 51.4481 9.08814C50.856 9.08814 50.334 9.21054 49.8821 9.45535C49.438 9.70015 49.0641 10.0368 48.7603 10.4652C48.4642 10.8859 48.2422 11.3717 48.0941 11.9225C47.9461 12.4657 47.8721 13.0433 47.8721 13.6553Z" fill="#996DFF"/>
<path d="M64.9923 18.4749C65.5065 18.4749 65.9818 18.3716 66.418 18.1651C66.8543 17.9585 67.2127 17.6754 67.4932 17.3159C67.7736 16.9487 67.9333 16.5317 67.9723 16.0651H70.0291C69.9901 16.7995 69.7369 17.4842 69.2695 18.1192C68.8098 18.7465 68.206 19.2552 67.4581 19.6454C66.7102 20.0279 65.8883 20.2191 64.9923 20.2191C64.0419 20.2191 63.2121 20.0546 62.5032 19.7257C61.802 19.3967 61.2177 18.9454 60.7503 18.3716C60.2906 17.7979 59.9439 17.1399 59.7102 16.3979C59.4843 15.6482 59.3713 14.8564 59.3713 14.0225V13.5405C59.3713 12.7067 59.4843 11.9187 59.7102 11.1766C59.9439 10.4269 60.2906 9.76518 60.7503 9.19142C61.2177 8.61766 61.802 8.1663 62.5032 7.83734C63.2121 7.50838 64.0419 7.3439 64.9923 7.3439C65.9818 7.3439 66.8465 7.54281 67.5867 7.94062C68.3268 8.33077 68.9072 8.86629 69.3279 9.54715C69.7564 10.2204 69.9901 10.9854 70.0291 11.8422H67.9723C67.9333 11.3296 67.7853 10.8668 67.5282 10.4537C67.2789 10.0406 66.9361 9.71163 66.4998 9.46682C66.0714 9.21437 65.5688 9.08814 64.9923 9.08814C64.3301 9.08814 63.7731 9.21819 63.3212 9.4783C62.8771 9.73075 62.5227 10.075 62.2578 10.5111C62.0007 10.9395 61.8137 11.4176 61.6968 11.9455C61.5878 12.4657 61.5332 12.9974 61.5332 13.5405V14.0225C61.5332 14.5657 61.5878 15.1012 61.6968 15.629C61.8059 16.1569 61.989 16.635 62.2461 17.0634C62.511 17.4918 62.8654 17.8361 63.3095 18.0962C63.7614 18.3487 64.3223 18.4749 64.9923 18.4749Z" fill="#996DFF"/>
<path d="M74.6334 2.36365V19.9896H72.4598V2.36365H74.6334ZM82.358 7.57341L76.8421 13.3684L73.757 16.5126L73.5817 14.252L75.7903 11.6586L79.7169 7.57341H82.358ZM80.383 19.9896L75.8721 14.0684L76.994 12.175L82.9306 19.9896H80.383Z" fill="#996DFF"/>
<path d="M89.6034 20.2191C88.723 20.2191 87.9245 20.0738 87.2077 19.7831C86.4988 19.4847 85.8872 19.0678 85.373 18.5323C84.8666 17.9968 84.4771 17.3618 84.2044 16.6274C83.9317 15.893 83.7954 15.0897 83.7954 14.2176V13.7356C83.7954 12.7258 83.9473 11.8269 84.2511 11.0389C84.555 10.2433 84.9679 9.5701 85.4899 9.01929C86.0118 8.46848 86.6039 8.05154 87.2662 7.76849C87.9284 7.48543 88.614 7.3439 89.3229 7.3439C90.2266 7.3439 91.0057 7.49691 91.6602 7.80291C92.3224 8.10892 92.8638 8.53733 93.2845 9.08814C93.7052 9.6313 94.0169 10.2739 94.2194 11.016C94.422 11.7504 94.5233 12.5537 94.5233 13.4258V14.3782H85.0808V12.6455H92.3613V12.4848C92.3302 11.934 92.2133 11.3985 92.0107 10.8783C91.816 10.3581 91.5043 9.92966 91.0758 9.59305C90.6474 9.25644 90.063 9.08814 89.3229 9.08814C88.8321 9.08814 88.3802 9.19142 87.9673 9.39797C87.5544 9.59688 87.1999 9.89523 86.9039 10.293C86.6078 10.6909 86.378 11.1766 86.2144 11.7504C86.0508 12.3242 85.969 12.9859 85.969 13.7356V14.2176C85.969 14.8066 86.0508 15.3613 86.2144 15.8815C86.3858 16.394 86.6312 16.8454 86.9506 17.2356C87.2778 17.6257 87.6713 17.9317 88.1309 18.1536C88.5984 18.3754 89.1282 18.4864 89.7202 18.4864C90.4837 18.4864 91.1304 18.3334 91.6602 18.0274C92.1899 17.7213 92.6535 17.3121 93.0508 16.7995L94.3597 17.8208C94.087 18.2263 93.7403 18.6126 93.3196 18.9798C92.8989 19.347 92.3808 19.6454 91.7653 19.8749C91.1576 20.1044 90.437 20.2191 89.6034 20.2191Z" fill="#996DFF"/>
<path d="M102.341 7.57341V9.20289H95.5049V7.57341H102.341ZM97.8188 4.55542H99.9807V16.9143C99.9807 17.335 100.047 17.6525 100.179 17.8667C100.312 18.0809 100.483 18.2224 100.694 18.2913C100.904 18.3601 101.13 18.3946 101.371 18.3946C101.551 18.3946 101.738 18.3793 101.932 18.3487C102.135 18.3104 102.287 18.2798 102.388 18.2569L102.4 19.9896C102.228 20.0432 102.002 20.0929 101.722 20.1388C101.449 20.1924 101.118 20.2191 100.729 20.2191C100.199 20.2191 99.7119 20.1159 99.2678 19.9093C98.8238 19.7027 98.4693 19.3585 98.2044 18.8765C97.9473 18.3869 97.8188 17.729 97.8188 16.9028V4.55542Z" fill="#996DFF"/>
<path d="M116.77 10.4652V12.2668H107.561V10.4652H116.77ZM107.912 3.28167V19.9896H105.656V3.28167H107.912ZM118.733 3.28167V19.9896H116.489V3.28167H118.733Z" fill="#00B37E"/>
<path d="M127.661 20.2191C126.781 20.2191 125.982 20.0738 125.266 19.7831C124.557 19.4847 123.945 19.0678 123.431 18.5323C122.925 17.9968 122.535 17.3618 122.262 16.6274C121.99 15.893 121.853 15.0897 121.853 14.2176V13.7356C121.853 12.7258 122.005 11.8269 122.309 11.0389C122.613 10.2433 123.026 9.5701 123.548 9.01929C124.07 8.46848 124.662 8.05154 125.324 7.76849C125.986 7.48543 126.672 7.3439 127.381 7.3439C128.285 7.3439 129.064 7.49691 129.718 7.80291C130.38 8.10892 130.922 8.53733 131.342 9.08814C131.763 9.6313 132.075 10.2739 132.277 11.016C132.48 11.7504 132.581 12.5537 132.581 13.4258V14.3782H123.139V12.6455H130.419V12.4848C130.388 11.934 130.271 11.3985 130.069 10.8783C129.874 10.3581 129.562 9.92966 129.134 9.59305C128.705 9.25644 128.121 9.08814 127.381 9.08814C126.89 9.08814 126.438 9.19142 126.025 9.39797C125.612 9.59688 125.258 9.89523 124.962 10.293C124.666 10.6908 124.436 11.1766 124.272 11.7504C124.109 12.3242 124.027 12.9859 124.027 13.7356V14.2176C124.027 14.8066 124.109 15.3613 124.272 15.8815C124.444 16.394 124.689 16.8454 125.009 17.2356C125.336 17.6257 125.729 17.9317 126.189 18.1536C126.656 18.3754 127.186 18.4864 127.778 18.4864C128.542 18.4864 129.188 18.3334 129.718 18.0274C130.248 17.7213 130.711 17.3121 131.109 16.7995L132.418 17.8208C132.145 18.2263 131.798 18.6126 131.377 18.9798C130.957 19.347 130.439 19.6454 129.823 19.8749C129.216 20.1044 128.495 20.2191 127.661 20.2191Z" fill="#00B37E"/>
<path d="M137.454 2.36365V19.9896H135.281V2.36365H137.454Z" fill="#00B37E"/>
<path d="M143.087 9.96026V24.7633H140.913V7.57341H142.9L143.087 9.96026ZM151.606 13.6782V13.9192C151.606 14.8219 151.497 15.6596 151.279 16.4323C151.061 17.1973 150.741 17.8629 150.321 18.429C149.908 18.9951 149.398 19.435 148.79 19.7486C148.182 20.0623 147.485 20.2191 146.698 20.2191C145.896 20.2191 145.187 20.0891 144.571 19.829C143.956 19.5689 143.434 19.1902 143.005 18.6929C142.577 18.1957 142.234 17.5989 141.977 16.9028C141.728 16.2066 141.556 15.4225 141.463 14.5504V13.2651C141.556 12.3471 141.731 11.5247 141.989 10.798C142.246 10.0712 142.585 9.45152 143.005 8.93896C143.434 8.41875 143.952 8.02477 144.559 7.75701C145.167 7.48161 145.868 7.3439 146.663 7.3439C147.458 7.3439 148.163 7.49691 148.778 7.80291C149.394 8.10127 149.912 8.52968 150.332 9.08814C150.753 9.6466 151.069 10.316 151.279 11.0963C151.497 11.869 151.606 12.7296 151.606 13.6782ZM149.433 13.9192V13.6782C149.433 13.0586 149.366 12.4772 149.234 11.934C149.102 11.3832 148.895 10.9012 148.615 10.4881C148.342 10.0674 147.991 9.7384 147.563 9.50125C147.134 9.25644 146.624 9.13404 146.032 9.13404C145.487 9.13404 145.011 9.22584 144.606 9.40945C144.209 9.59305 143.87 9.84168 143.59 10.1553C143.309 10.4613 143.079 10.8133 142.9 11.2111C142.729 11.6012 142.6 12.0067 142.514 12.4274V15.3995C142.67 15.935 142.888 16.4399 143.169 16.9143C143.449 17.3809 143.823 17.7596 144.291 18.0503C144.758 18.3334 145.346 18.4749 146.055 18.4749C146.64 18.4749 147.142 18.3563 147.563 18.1192C147.991 17.8744 148.342 17.5416 148.615 17.1208C148.895 16.7001 149.102 16.2181 149.234 15.6749C149.366 15.1241 149.433 14.5389 149.433 13.9192Z" fill="#00B37E"/>
</svg>
